<?xml version="1.0" encoding="UTF-8" standalone="no"?>
<!DOCTYPE svg PUBLIC "-//W3C//DTD SVG 1.1//EN"
 "http://www.w3.org/Graphics/SVG/1.1/DTD/svg11.dtd">
<!-- Generated by graphviz version 2.47.0 (20210316.0004)
 -->
<!-- Title: dependencies Pages: 1 -->
<svg width="739pt" height="211pt"
 viewBox="0.00 0.00 739.00 211.00" xmlns="http://www.w3.org/2000/svg" xmlns:xlink="http://www.w3.org/1999/xlink">
<g id="graph0" class="graph" transform="scale(1 1) rotate(0) translate(4 207)">
<title>dependencies</title>
<polygon fill="white" stroke="transparent" points="-4,4 -4,-207 735,-207 735,4 -4,4"/>
<text text-anchor="start" x="344.51" y="-42.4" font-family="Times-12" font-weight="bold" font-size="14.00">Legend</text>
<polygon fill="#ffffb3" stroke="transparent" points="131.5,-10 131.5,-30 151.5,-30 151.5,-10 131.5,-10"/>
<text text-anchor="start" x="155.13" y="-15.4" font-family="Times-12" font-size="14.00"> &#160;Declarations</text>
<polygon fill="#8dd3c7" stroke="transparent" points="244.5,-10 244.5,-30 264.5,-30 264.5,-10 244.5,-10"/>
<text text-anchor="start" x="268.23" y="-15.4" font-family="Times-12" font-size="14.00"> &#160;Module</text>
<polygon fill="#80b1d3" stroke="transparent" points="330.5,-10 330.5,-30 350.5,-30 350.5,-10 330.5,-10"/>
<text text-anchor="start" x="354.28" y="-15.4" font-family="Times-12" font-size="14.00"> &#160;Bootstrap</text>
<polygon fill="#fdb462" stroke="transparent" points="427.5,-10 427.5,-30 447.5,-30 447.5,-10 427.5,-10"/>
<text text-anchor="start" x="451.17" y="-15.4" font-family="Times-12" font-size="14.00"> &#160;Providers</text>
<polygon fill="#fb8072" stroke="transparent" points="523.5,-10 523.5,-30 543.5,-30 543.5,-10 523.5,-10"/>
<text text-anchor="start" x="547.23" y="-15.4" font-family="Times-12" font-size="14.00"> &#160;Exports</text>
<g id="clust1" class="cluster">
<title>cluster_AppModule</title>
<polygon fill="none" stroke="black" stroke-dasharray="1,5" points="8,-70 8,-195 723,-195 723,-70 8,-70"/>
</g>
<g id="clust6" class="cluster">
<title>cluster_AppModule_providers</title>
<polygon fill="none" stroke="black" points="585,-78 585,-130 715,-130 715,-78 585,-78"/>
</g>
<g id="clust3" class="cluster">
<title>cluster_AppModule_imports</title>
<polygon fill="none" stroke="black" points="16,-78 16,-130 577,-130 577,-78 16,-78"/>
</g>
<!-- AuthModule -->
<g id="node1" class="node">
<title>AuthModule</title>
<polygon fill="#8dd3c7" stroke="black" points="568.55,-122 565.55,-126 544.55,-126 541.55,-122 481.45,-122 481.45,-86 568.55,-86 568.55,-122"/>
<text text-anchor="middle" x="525" y="-99.8" font-family="Times,serif" font-size="14.00">AuthModule</text>
</g>
<!-- AppModule -->
<g id="node6" class="node">
<title>AppModule</title>
<polygon fill="#8dd3c7" stroke="black" points="394.66,-187 391.66,-191 370.66,-191 367.66,-187 311.34,-187 311.34,-151 394.66,-151 394.66,-187"/>
<text text-anchor="middle" x="353" y="-164.8" font-family="Times,serif" font-size="14.00">AppModule</text>
</g>
<!-- AuthModule&#45;&gt;AppModule -->
<g id="edge1" class="edge">
<title>AuthModule&#45;&gt;AppModule</title>
<path fill="none" stroke="black" d="M525,-122.02C525,-139.37 525,-163 525,-163 525,-163 405.08,-163 405.08,-163"/>
<polygon fill="black" stroke="black" points="405.08,-159.5 395.08,-163 405.08,-166.5 405.08,-159.5"/>
</g>
<!-- LatihanModule -->
<g id="node2" class="node">
<title>LatihanModule</title>
<polygon fill="#8dd3c7" stroke="black" points="463.31,-122 460.31,-126 439.31,-126 436.31,-122 360.69,-122 360.69,-86 463.31,-86 463.31,-122"/>
<text text-anchor="middle" x="412" y="-99.8" font-family="Times,serif" font-size="14.00">LatihanModule</text>
</g>
<!-- LatihanModule&#45;&gt;AppModule -->
<g id="edge2" class="edge">
<title>LatihanModule&#45;&gt;AppModule</title>
<path fill="none" stroke="black" d="M377.84,-122.11C377.84,-122.11 377.84,-140.99 377.84,-140.99"/>
<polygon fill="black" stroke="black" points="374.34,-140.99 377.84,-150.99 381.34,-140.99 374.34,-140.99"/>
</g>
<!-- PrismaModule -->
<g id="node3" class="node">
<title>PrismaModule</title>
<polygon fill="#8dd3c7" stroke="black" points="343.43,-122 340.43,-126 319.43,-126 316.43,-122 244.57,-122 244.57,-86 343.43,-86 343.43,-122"/>
<text text-anchor="middle" x="294" y="-99.8" font-family="Times,serif" font-size="14.00">PrismaModule</text>
</g>
<!-- PrismaModule&#45;&gt;AppModule -->
<g id="edge3" class="edge">
<title>PrismaModule&#45;&gt;AppModule</title>
<path fill="none" stroke="black" d="M327.19,-122.11C327.19,-122.11 327.19,-140.99 327.19,-140.99"/>
<polygon fill="black" stroke="black" points="323.69,-140.99 327.19,-150.99 330.69,-140.99 323.69,-140.99"/>
</g>
<!-- SchoolModule -->
<g id="node4" class="node">
<title>SchoolModule</title>
<polygon fill="#8dd3c7" stroke="black" points="227.44,-122 224.44,-126 203.44,-126 200.44,-122 128.56,-122 128.56,-86 227.44,-86 227.44,-122"/>
<text text-anchor="middle" x="178" y="-99.8" font-family="Times,serif" font-size="14.00">SchoolModule</text>
</g>
<!-- SchoolModule&#45;&gt;AppModule -->
<g id="edge4" class="edge">
<title>SchoolModule&#45;&gt;AppModule</title>
<path fill="none" stroke="black" d="M178,-122.02C178,-139.37 178,-163 178,-163 178,-163 301.08,-163 301.08,-163"/>
<polygon fill="black" stroke="black" points="301.08,-166.5 311.08,-163 301.08,-159.5 301.08,-166.5"/>
</g>
<!-- TaskModule -->
<g id="node5" class="node">
<title>TaskModule</title>
<polygon fill="#8dd3c7" stroke="black" points="110.26,-122 107.26,-126 86.26,-126 83.26,-122 23.74,-122 23.74,-86 110.26,-86 110.26,-122"/>
<text text-anchor="middle" x="67" y="-99.8" font-family="Times,serif" font-size="14.00">TaskModule</text>
</g>
<!-- TaskModule&#45;&gt;AppModule -->
<g id="edge5" class="edge">
<title>TaskModule&#45;&gt;AppModule</title>
<path fill="none" stroke="black" d="M67,-122.28C67,-143.32 67,-175 67,-175 67,-175 301.11,-175 301.11,-175"/>
<polygon fill="black" stroke="black" points="301.11,-178.5 311.11,-175 301.11,-171.5 301.11,-178.5"/>
</g>
<!-- AppService -->
<g id="node7" class="node">
<title>AppService</title>
<ellipse fill="#fdb462" stroke="black" cx="650" cy="-104" rx="56.74" ry="18"/>
<text text-anchor="middle" x="650" y="-99.8" font-family="Times,serif" font-size="14.00">AppService</text>
</g>
<!-- AppService&#45;&gt;AppModule -->
<g id="edge6" class="edge">
<title>AppService&#45;&gt;AppModule</title>
<path fill="none" stroke="black" d="M650,-122.28C650,-143.32 650,-175 650,-175 650,-175 404.92,-175 404.92,-175"/>
<polygon fill="black" stroke="black" points="404.92,-171.5 394.92,-175 404.92,-178.5 404.92,-171.5"/>
</g>
</g>
</svg>
