<?xml version="1.0" encoding="UTF-8" standalone="no"?>
<!DOCTYPE svg PUBLIC "-//W3C//DTD SVG 1.1//EN"
 "http://www.w3.org/Graphics/SVG/1.1/DTD/svg11.dtd">
<!-- Generated by graphviz version 2.47.0 (20210316.0004)
 -->
<!-- Title: dependencies Pages: 1 -->
<svg width="1455pt" height="363pt"
 viewBox="0.00 0.00 1455.00 363.00" xmlns="http://www.w3.org/2000/svg" xmlns:xlink="http://www.w3.org/1999/xlink">
<g id="graph0" class="graph" transform="scale(1 1) rotate(0) translate(4 359)">
<title>dependencies</title>
<polygon fill="white" stroke="transparent" points="-4,4 -4,-359 1451,-359 1451,4 -4,4"/>
<text text-anchor="start" x="702.51" y="-42.4" font-family="Times-12" font-weight="bold" font-size="14.00">Legend</text>
<polygon fill="#ffffb3" stroke="transparent" points="489.5,-10 489.5,-30 509.5,-30 509.5,-10 489.5,-10"/>
<text text-anchor="start" x="513.13" y="-15.4" font-family="Times-12" font-size="14.00"> &#160;Declarations</text>
<polygon fill="#8dd3c7" stroke="transparent" points="602.5,-10 602.5,-30 622.5,-30 622.5,-10 602.5,-10"/>
<text text-anchor="start" x="626.23" y="-15.4" font-family="Times-12" font-size="14.00"> &#160;Module</text>
<polygon fill="#80b1d3" stroke="transparent" points="688.5,-10 688.5,-30 708.5,-30 708.5,-10 688.5,-10"/>
<text text-anchor="start" x="712.28" y="-15.4" font-family="Times-12" font-size="14.00"> &#160;Bootstrap</text>
<polygon fill="#fdb462" stroke="transparent" points="785.5,-10 785.5,-30 805.5,-30 805.5,-10 785.5,-10"/>
<text text-anchor="start" x="809.17" y="-15.4" font-family="Times-12" font-size="14.00"> &#160;Providers</text>
<polygon fill="#fb8072" stroke="transparent" points="881.5,-10 881.5,-30 901.5,-30 901.5,-10 881.5,-10"/>
<text text-anchor="start" x="905.23" y="-15.4" font-family="Times-12" font-size="14.00"> &#160;Exports</text>
<g id="clust1" class="cluster">
<title>cluster_AppModule</title>
<polygon fill="none" stroke="black" stroke-dasharray="1,5" points="630,-146 630,-347 1141,-347 1141,-146 630,-146"/>
</g>
<g id="clust3" class="cluster">
<title>cluster_AppModule_imports</title>
<polygon fill="none" stroke="black" points="776,-154 776,-282 1101,-282 1101,-154 776,-154"/>
</g>
<g id="clust6" class="cluster">
<title>cluster_AppModule_providers</title>
<polygon fill="none" stroke="black" points="638,-230 638,-282 768,-282 768,-230 638,-230"/>
</g>
<g id="clust7" class="cluster">
<title>cluster_AuthModule</title>
<polygon fill="none" stroke="black" stroke-dasharray="1,5" points="8,-146 8,-214 290,-214 290,-146 8,-146"/>
</g>
<g id="clust12" class="cluster">
<title>cluster_AuthModule_providers</title>
<polygon fill="none" stroke="black" points="16,-154 16,-206 282,-206 282,-154 16,-154"/>
</g>
<g id="clust13" class="cluster">
<title>cluster_LatihanModule</title>
<polygon fill="none" stroke="black" stroke-dasharray="1,5" points="957,-70 957,-138 1127,-138 1127,-70 957,-70"/>
</g>
<g id="clust18" class="cluster">
<title>cluster_LatihanModule_providers</title>
<polygon fill="none" stroke="black" points="965,-78 965,-130 1119,-130 1119,-78 965,-78"/>
</g>
<g id="clust19" class="cluster">
<title>cluster_PrismaModule</title>
<polygon fill="none" stroke="black" stroke-dasharray="1,5" points="1149,-222 1149,-290 1439,-290 1439,-222 1149,-222"/>
</g>
<g id="clust22" class="cluster">
<title>cluster_PrismaModule_exports</title>
<polygon fill="none" stroke="black" points="1315,-230 1315,-282 1431,-282 1431,-230 1315,-230"/>
</g>
<g id="clust24" class="cluster">
<title>cluster_PrismaModule_providers</title>
<polygon fill="none" stroke="black" points="1157,-230 1157,-282 1307,-282 1307,-230 1157,-230"/>
</g>
<g id="clust25" class="cluster">
<title>cluster_SchoolModule</title>
<polygon fill="none" stroke="black" stroke-dasharray="1,5" points="298,-146 298,-214 464,-214 464,-146 298,-146"/>
</g>
<g id="clust30" class="cluster">
<title>cluster_SchoolModule_providers</title>
<polygon fill="none" stroke="black" points="306,-154 306,-206 456,-206 456,-154 306,-154"/>
</g>
<g id="clust31" class="cluster">
<title>cluster_TaskModule</title>
<polygon fill="none" stroke="black" stroke-dasharray="1,5" points="472,-146 472,-214 622,-214 622,-146 472,-146"/>
</g>
<g id="clust36" class="cluster">
<title>cluster_TaskModule_providers</title>
<polygon fill="none" stroke="black" points="480,-154 480,-206 614,-206 614,-154 480,-154"/>
</g>
<!-- AuthModule -->
<g id="node1" class="node">
<title>AuthModule</title>
<polygon fill="#8dd3c7" stroke="black" points="871.55,-274 868.55,-278 847.55,-278 844.55,-274 784.45,-274 784.45,-238 871.55,-238 871.55,-274"/>
<text text-anchor="middle" x="828" y="-251.8" font-family="Times,serif" font-size="14.00">AuthModule</text>
</g>
<!-- AppModule -->
<g id="node6" class="node">
<title>AppModule</title>
<polygon fill="#8dd3c7" stroke="black" points="1035.66,-339 1032.66,-343 1011.66,-343 1008.66,-339 952.34,-339 952.34,-303 1035.66,-303 1035.66,-339"/>
<text text-anchor="middle" x="994" y="-316.8" font-family="Times,serif" font-size="14.00">AppModule</text>
</g>
<!-- AuthModule&#45;&gt;AppModule -->
<g id="edge1" class="edge">
<title>AuthModule&#45;&gt;AppModule</title>
<path fill="none" stroke="black" d="M828,-274.11C828,-293.34 828,-321 828,-321 828,-321 942.11,-321 942.11,-321"/>
<polygon fill="black" stroke="black" points="942.11,-324.5 952.11,-321 942.11,-317.5 942.11,-324.5"/>
</g>
<!-- LatihanModule -->
<g id="node2" class="node">
<title>LatihanModule</title>
<polygon fill="#8dd3c7" stroke="black" points="1093.31,-198 1090.31,-202 1069.31,-202 1066.31,-198 990.69,-198 990.69,-162 1093.31,-162 1093.31,-198"/>
<text text-anchor="middle" x="1042" y="-175.8" font-family="Times,serif" font-size="14.00">LatihanModule</text>
</g>
<!-- LatihanModule&#45;&gt;AppModule -->
<g id="edge2" class="edge">
<title>LatihanModule&#45;&gt;AppModule</title>
<path fill="none" stroke="black" d="M998.73,-198.14C998.73,-198.14 998.73,-292.93 998.73,-292.93"/>
<polygon fill="black" stroke="black" points="995.23,-292.92 998.73,-302.93 1002.23,-292.93 995.23,-292.92"/>
</g>
<!-- PrismaModule -->
<g id="node3" class="node">
<title>PrismaModule</title>
<polygon fill="#8dd3c7" stroke="black" points="973.43,-198 970.43,-202 949.43,-202 946.43,-198 874.57,-198 874.57,-162 973.43,-162 973.43,-198"/>
<text text-anchor="middle" x="924" y="-175.8" font-family="Times,serif" font-size="14.00">PrismaModule</text>
</g>
<!-- PrismaModule&#45;&gt;AuthModule -->
<g id="edge7" class="edge">
<title>PrismaModule&#45;&gt;AuthModule</title>
<path fill="none" stroke="black" d="M879.78,-198.01C879.78,-220.49 879.78,-256 879.78,-256 879.78,-256 878.97,-256 878.97,-256"/>
<polygon fill="black" stroke="black" points="881.69,-252.5 871.69,-256 881.69,-259.5 881.69,-252.5"/>
</g>
<!-- SchoolModule -->
<g id="node4" class="node">
<title>SchoolModule</title>
<polygon fill="#8dd3c7" stroke="black" points="988.44,-274 985.44,-278 964.44,-278 961.44,-274 889.56,-274 889.56,-238 988.44,-238 988.44,-274"/>
<text text-anchor="middle" x="939" y="-251.8" font-family="Times,serif" font-size="14.00">SchoolModule</text>
</g>
<!-- PrismaModule&#45;&gt;SchoolModule -->
<g id="edge13" class="edge">
<title>PrismaModule&#45;&gt;SchoolModule</title>
<path fill="none" stroke="black" d="M917.59,-198.01C917.59,-198.01 917.59,-227.85 917.59,-227.85"/>
<polygon fill="black" stroke="black" points="914.09,-227.85 917.59,-237.85 921.09,-227.85 914.09,-227.85"/>
</g>
<!-- TaskModule -->
<g id="node5" class="node">
<title>TaskModule</title>
<polygon fill="#8dd3c7" stroke="black" points="1093.26,-274 1090.26,-278 1069.26,-278 1066.26,-274 1006.74,-274 1006.74,-238 1093.26,-238 1093.26,-274"/>
<text text-anchor="middle" x="1050" y="-251.8" font-family="Times,serif" font-size="14.00">TaskModule</text>
</g>
<!-- PrismaModule&#45;&gt;TaskModule -->
<g id="edge15" class="edge">
<title>PrismaModule&#45;&gt;TaskModule</title>
<path fill="none" stroke="black" d="M945.4,-198.04C945.4,-205.75 945.4,-213 945.4,-213 945.4,-213 1064.31,-213 1064.31,-213 1064.31,-213 1064.31,-227.51 1064.31,-227.51"/>
<polygon fill="black" stroke="black" points="1060.81,-227.51 1064.31,-237.51 1067.81,-227.51 1060.81,-227.51"/>
</g>
<!-- PrismaModule&#45;&gt;AppModule -->
<g id="edge3" class="edge">
<title>PrismaModule&#45;&gt;AppModule</title>
<path fill="none" stroke="black" d="M884.78,-198.08C884.78,-234.23 884.78,-312 884.78,-312 884.78,-312 942.09,-312 942.09,-312"/>
<polygon fill="black" stroke="black" points="942.09,-315.5 952.09,-312 942.09,-308.5 942.09,-315.5"/>
</g>
<!-- PrismaService  -->
<g id="node11" class="node">
<title>PrismaService </title>
<polygon fill="#fb8072" stroke="black" points="1423.36,-274 1322.64,-274 1322.64,-238 1423.36,-238 1423.36,-274"/>
<text text-anchor="middle" x="1373" y="-251.8" font-family="Times,serif" font-size="14.00">PrismaService </text>
</g>
<!-- PrismaModule&#45;&gt;PrismaService  -->
<g id="edge11" class="edge">
<title>PrismaModule&#45;&gt;PrismaService </title>
<path fill="none" stroke="black" stroke-dasharray="5,2" d="M959.31,-198.12C959.31,-200.97 959.31,-203 959.31,-203 959.31,-203 1373,-203 1373,-203 1373,-203 1373,-227.76 1373,-227.76"/>
<polygon fill="black" stroke="black" points="1369.5,-227.76 1373,-237.76 1376.5,-227.76 1369.5,-227.76"/>
</g>
<!-- SchoolModule&#45;&gt;AppModule -->
<g id="edge4" class="edge">
<title>SchoolModule&#45;&gt;AppModule</title>
<path fill="none" stroke="black" d="M970.2,-274.11C970.2,-274.11 970.2,-292.99 970.2,-292.99"/>
<polygon fill="black" stroke="black" points="966.7,-292.99 970.2,-302.99 973.7,-292.99 966.7,-292.99"/>
</g>
<!-- TaskModule&#45;&gt;AppModule -->
<g id="edge5" class="edge">
<title>TaskModule&#45;&gt;AppModule</title>
<path fill="none" stroke="black" d="M1021.22,-274.11C1021.22,-274.11 1021.22,-292.99 1021.22,-292.99"/>
<polygon fill="black" stroke="black" points="1017.72,-292.99 1021.22,-302.99 1024.72,-292.99 1017.72,-292.99"/>
</g>
<!-- AppService -->
<g id="node7" class="node">
<title>AppService</title>
<ellipse fill="#fdb462" stroke="black" cx="703" cy="-256" rx="56.74" ry="18"/>
<text text-anchor="middle" x="703" y="-251.8" font-family="Times,serif" font-size="14.00">AppService</text>
</g>
<!-- AppService&#45;&gt;AppModule -->
<g id="edge6" class="edge">
<title>AppService&#45;&gt;AppModule</title>
<path fill="none" stroke="black" d="M703,-274.29C703,-296.21 703,-330 703,-330 703,-330 942.31,-330 942.31,-330"/>
<polygon fill="black" stroke="black" points="942.31,-333.5 952.31,-330 942.31,-326.5 942.31,-333.5"/>
</g>
<!-- AuthService -->
<g id="node8" class="node">
<title>AuthService</title>
<ellipse fill="#fdb462" stroke="black" cx="215" cy="-180" rx="59.11" ry="18"/>
<text text-anchor="middle" x="215" y="-175.8" font-family="Times,serif" font-size="14.00">AuthService</text>
</g>
<!-- AuthService&#45;&gt;AuthModule -->
<g id="edge8" class="edge">
<title>AuthService&#45;&gt;AuthModule</title>
<path fill="none" stroke="black" d="M215,-198.15C215,-211.74 215,-228 215,-228 215,-228 842.59,-228 842.59,-228 842.59,-228 842.59,-228.98 842.59,-228.98"/>
<polygon fill="black" stroke="black" points="839.09,-227.79 842.59,-237.79 846.09,-227.79 839.09,-227.79"/>
</g>
<!-- JwtStrategy -->
<g id="node9" class="node">
<title>JwtStrategy</title>
<ellipse fill="#fdb462" stroke="black" cx="81" cy="-180" rx="56.76" ry="18"/>
<text text-anchor="middle" x="81" y="-175.8" font-family="Times,serif" font-size="14.00">JwtStrategy</text>
</g>
<!-- JwtStrategy&#45;&gt;AuthModule -->
<g id="edge9" class="edge">
<title>JwtStrategy&#45;&gt;AuthModule</title>
<path fill="none" stroke="black" d="M81,-198.24C81,-213.57 81,-233 81,-233 81,-233 813.41,-233 813.41,-233 813.41,-233 813.41,-233.49 813.41,-233.49"/>
<polygon fill="black" stroke="black" points="809.91,-227.88 813.41,-237.88 816.91,-227.88 809.91,-227.88"/>
</g>
<!-- LatihanService -->
<g id="node10" class="node">
<title>LatihanService</title>
<ellipse fill="#fdb462" stroke="black" cx="1042" cy="-104" rx="69.48" ry="18"/>
<text text-anchor="middle" x="1042" y="-99.8" font-family="Times,serif" font-size="14.00">LatihanService</text>
</g>
<!-- LatihanService&#45;&gt;LatihanModule -->
<g id="edge10" class="edge">
<title>LatihanService&#45;&gt;LatihanModule</title>
<path fill="none" stroke="black" d="M1042,-122.01C1042,-122.01 1042,-151.85 1042,-151.85"/>
<polygon fill="black" stroke="black" points="1038.5,-151.85 1042,-161.85 1045.5,-151.85 1038.5,-151.85"/>
</g>
<!-- PrismaService -->
<g id="node12" class="node">
<title>PrismaService</title>
<ellipse fill="#fdb462" stroke="black" cx="1232" cy="-256" rx="66.63" ry="18"/>
<text text-anchor="middle" x="1232" y="-251.8" font-family="Times,serif" font-size="14.00">PrismaService</text>
</g>
<!-- PrismaService&#45;&gt;PrismaModule -->
<g id="edge12" class="edge">
<title>PrismaService&#45;&gt;PrismaModule</title>
<path fill="none" stroke="black" d="M1232,-237.85C1232,-224.26 1232,-208 1232,-208 1232,-208 931.5,-208 931.5,-208 931.5,-208 931.5,-207.02 931.5,-207.02"/>
<polygon fill="black" stroke="black" points="935,-208.21 931.5,-198.21 928,-208.21 935,-208.21"/>
</g>
<!-- SchoolService -->
<g id="node13" class="node">
<title>SchoolService</title>
<ellipse fill="#fdb462" stroke="black" cx="381" cy="-180" rx="66.63" ry="18"/>
<text text-anchor="middle" x="381" y="-175.8" font-family="Times,serif" font-size="14.00">SchoolService</text>
</g>
<!-- SchoolService&#45;&gt;SchoolModule -->
<g id="edge14" class="edge">
<title>SchoolService&#45;&gt;SchoolModule</title>
<path fill="none" stroke="black" d="M381,-198.49C381,-210.14 381,-223 381,-223 381,-223 903.69,-223 903.69,-223 903.69,-223 903.69,-227.96 903.69,-227.96"/>
<polygon fill="black" stroke="black" points="900.19,-227.96 903.69,-237.96 907.19,-227.96 900.19,-227.96"/>
</g>
<!-- TaskService -->
<g id="node14" class="node">
<title>TaskService</title>
<ellipse fill="#fdb462" stroke="black" cx="547" cy="-180" rx="58.53" ry="18"/>
<text text-anchor="middle" x="547" y="-175.8" font-family="Times,serif" font-size="14.00">TaskService</text>
</g>
<!-- TaskService&#45;&gt;TaskModule -->
<g id="edge16" class="edge">
<title>TaskService&#45;&gt;TaskModule</title>
<path fill="none" stroke="black" d="M547,-198.11C547,-207.9 547,-218 547,-218 547,-218 1035.46,-218 1035.46,-218 1035.46,-218 1035.46,-227.89 1035.46,-227.89"/>
<polygon fill="black" stroke="black" points="1031.97,-227.89 1035.46,-237.89 1038.97,-227.89 1031.97,-227.89"/>
</g>
</g>
</svg>
